<?xml version="1.0" standalone="no"?>
<!DOCTYPE svg PUBLIC "-//W3C//DTD SVG 20010904//EN"
 "http://www.w3.org/TR/2001/REC-SVG-20010904/DTD/svg10.dtd">
<svg version="1.0" xmlns="http://www.w3.org/2000/svg"
 width="700.000000pt" height="700.000000pt" viewBox="0 0 700.000000 700.000000"
 preserveAspectRatio="xMidYMid meet">
<metadata>
Created by potrace 1.11, written by Peter Selinger 2001-2013
</metadata>
<g transform="translate(0.000000,700.000000) scale(0.100000,-0.100000)"
fill="#000000" stroke="none">
<path d="M4181 6785 c54 -105 74 -165 50 -151 -12 8 -54 -12 -123 -57 -286
-186 -531 -507 -641 -837 -71 -211 -86 -311 -84 -547 l2 -172 -25 5 c-14 3
-36 10 -50 14 -24 8 -50 13 -182 29 -95 12 -446 4 -528 -13 -83 -16 -114 -23
-138 -30 -16 -5 -17 10 -18 167 0 156 -7 262 -20 309 -3 10 -7 30 -10 45 -18
106 -86 298 -145 410 -212 403 -543 683 -973 825 -174 57 -163 42 19 -27 91
-35 265 -116 265 -124 0 -3 -9 -12 -21 -19 -17 -11 -25 -10 -51 3 -36 17 -52
19 -43 5 3 -5 12 -39 20 -74 12 -61 11 -72 -10 -157 -32 -125 -47 -249 -48
-393 0 -141 1 -164 19 -271 27 -166 76 -325 135 -438 6 -10 24 -46 41 -80 61
-120 180 -280 286 -383 28 -28 52 -53 52 -56 0 -3 -33 -39 -74 -80 -195 -199
-335 -469 -371 -713 -3 -23 -8 -52 -11 -65 -3 -14 -7 -486 -8 -1050 l-1 -1026
-35 -54 c-95 -148 -103 -190 -104 -540 -1 -329 3 -363 44 -467 53 -131 160
-250 283 -312 37 -19 67 -37 68 -40 4 -29 4 -191 -1 -192 -3 0 -34 -2 -70 -3
-75 -2 -107 -17 -116 -51 -10 -42 4 -75 39 -90 48 -20 524 -19 580 1 89 32
126 97 127 222 l0 82 604 0 604 0 0 -84 c-1 -88 20 -151 60 -184 52 -42 92
-50 226 -48 142 2 172 11 221 64 36 38 45 75 48 188 l2 99 51 25 c149 73 261
200 315 357 28 83 31 119 33 392 l1 244 25 9 c24 10 559 192 1075 367 143 49
277 96 298 104 48 21 65 59 44 102 -13 28 -41 42 -253 132 -132 56 -261 111
-287 123 l-48 21 108 56 c59 30 205 105 323 165 352 181 537 276 682 351 83
43 141 79 148 93 14 25 7 65 -14 87 -13 13 -267 123 -931 404 -110 47 -213 91
-230 98 -175 77 -272 115 -297 115 -26 0 -60 -18 -108 -57 -45 -37 -649 -495
-667 -506 -8 -5 -11 102 -12 370 -1 208 -3 393 -6 411 -14 100 -18 123 -35
192 -56 220 -180 438 -346 605 l-82 82 45 44 c155 151 304 371 372 549 12 30
26 64 31 75 13 30 68 225 74 265 26 176 24 402 -4 560 -15 82 -17 90 -35 160
-16 60 -16 69 0 133 9 38 14 71 12 74 -3 3 -16 -2 -29 -11 -12 -9 -26 -16 -30
-16 -4 0 -28 42 -54 93 -43 87 -112 207 -118 207 -2 0 23 -52 55 -115z"/>
<path d="M744 220 c-27 -10 -54 -48 -54 -73 0 -10 13 -32 30 -48 34 -34 68
-34 105 1 55 52 -11 148 -81 120z"/>
<path d="M1004 218 c-69 -37 -54 -130 23 -142 46 -6 83 25 83 70 0 31 -26 73
-47 75 -5 0 -15 2 -24 4 -8 1 -24 -2 -35 -7z"/>
<path d="M1275 220 c-44 -17 -64 -73 -39 -109 35 -50 109 -47 133 5 16 36 14
50 -11 78 -27 29 -55 38 -83 26z"/>
</g>
</svg>
